<svg width="20" height="36" viewBox="0 0 20 36" fill="none" xmlns="http://www.w3.org/2000/svg">
<path fill-rule="evenodd" clip-rule="evenodd" d="M19.1549 13.0026C19.0628 12.7972 18.8647 12.6655 18.6464 12.6655H11.9947L18.5594 1.894C18.6688 1.71442 18.6755 1.48702 18.5767 1.30155C18.478 1.11443 18.2893 0.998838 18.0849 0.998838H9.1038C8.89114 0.998838 8.69687 1.12355 8.60145 1.32142L0.181649 18.8214C0.0946199 19.0021 0.104161 19.2166 0.206231 19.3886C0.309017 19.5607 0.489152 19.665 0.683981 19.665H6.45607L0.166471 35.1891C0.0592259 35.4547 0.154619 35.7623 0.390964 35.9133C0.481782 35.9703 0.582835 35.9988 0.683426 35.9988C0.844455 35.9988 1.00334 35.9268 1.11335 35.7918L19.0757 13.6252C19.2167 13.4515 19.2469 13.2085 19.1549 13.0026Z" fill="white"/>
</svg>
