<svg width="12" height="20" viewBox="0 0 12 20" fill="none" xmlns="http://www.w3.org/2000/svg">
<g style="mix-blend-mode:multiply" opacity="0.25">
<path d="M12.0003 7.99912C12.0002 11.1817 10.7359 14.2339 8.48544 16.4843C6.23502 18.7348 3.18283 19.999 0.000244141 19.9991C0.000244141 19.9991 0.105534 19.9898 0.303728 19.9713C0.505019 19.9589 0.79302 19.9155 1.15844 19.866C1.52386 19.8071 1.9636 19.7204 2.45908 19.5966C3.0091 19.4465 3.54986 19.2645 4.0787 19.0515C4.69855 18.7936 5.29706 18.4871 5.86864 18.1349C6.49964 17.7399 7.09539 17.2913 7.64928 16.794C8.23795 16.2613 8.77406 15.6733 9.25032 15.0381C9.74456 14.3866 10.1671 13.6837 10.5107 12.9416C10.8617 12.2019 11.1347 11.4277 11.3252 10.6314C11.5092 9.86013 11.6191 9.07308 11.6534 8.28093C11.6834 7.53603 11.6482 6.78999 11.5481 6.05125C11.4557 5.38712 11.3096 4.73156 11.1115 4.09099C10.9418 3.54565 10.737 3.01189 10.4983 2.49305C10.2784 2.03163 10.0679 1.63525 9.87896 1.31938C9.69006 1.0035 9.53212 0.755763 9.41754 0.59473C9.33083 0.470859 9.27819 0.39344 9.25651 0.359375C11.0342 2.50795 12.0048 5.21044 12.0003 7.99912Z" fill="#0B0B0B"/>
</g>
</svg>
