<svg width="8" height="20" viewBox="0 0 8 20" fill="none" xmlns="http://www.w3.org/2000/svg">
<g style="mix-blend-mode:screen" opacity="0.4">
<path d="M1.93574 0.269418L0.325412 0.309678L0.36257 2.55174C0.378054 3.40026 0.374967 4.25187 0.38116 5.10349C0.387354 5.9551 0.387354 6.80362 0.38116 7.65214C0.374967 8.50065 0.378054 9.35227 0.36257 10.2039L0.340902 11.4798L0.334702 12.1084C0.337799 12.3221 0.331605 12.5389 0.343993 12.7401C0.357182 13.1527 0.393368 13.5642 0.45238 13.9727C0.511219 14.3845 0.594838 14.7933 0.690838 15.199C0.788904 15.6036 0.908811 16.0027 1.05005 16.3943C1.18941 16.7907 1.35355 17.1778 1.53006 17.5587C1.71587 17.9334 1.90477 18.3112 2.12774 18.6736C2.33832 19.0297 2.57368 19.3796 2.81522 19.7203C0.99404 17.5604 -0.00324853 14.8252 0.000253332 12V0H7.74219C6.45083 0.0929033 5.16257 0.148643 3.87122 0.201289L1.93574 0.269418Z" fill="white"/>
</g>
</svg>
